<?xml version="1.0" encoding="utf-8"?><!DOCTYPE svg PUBLIC "-//W3C//DTD SVG 1.1//EN" "http://www.w3.org/Graphics/SVG/1.1/DTD/svg11.dtd"><svg version="1.1" baseProfile="full" xmlns="http://www.w3.org/2000/svg" xmlns:xlink="http://www.w3.org/1999/xlink" xmlns:ev="http://www.w3.org/2001/xml-events"   height="221px"   width="221px" ><path fill="rgb( 255, 255, 255 )" d="M110.5,0 C171.528,0 221,49.473 221,110.5 C221,171.527 171.528,221 110.5,221 C49.473,221 0,171.527 0,110.5 C0,49.473 49.473,0 110.5,0 Z "/><path fill="rgb( 51, 51, 51 )" d="M169.623,75.8 C169.623,75.8 163.38,65.473 163.38,65.473 C163.065,64.954 162.5,64.635 161.894,64.635 C161.894,64.635 124.5,64.635 124.5,64.635 C123.89,64.635 123.329,64.954 123.015,65.473 C123.015,65.473 116.658,75.987 116.658,75.987 C116.628,76.036 116.616,76.09 116.592,76.142 C116.57,76.187 116.55,76.231 116.532,76.28 C116.461,76.472 116.412,76.67 116.412,76.871 C116.412,76.875 116.411,76.879 116.411,76.882 C116.411,76.882 116.411,86.465 116.411,86.465 C116.411,86.465 103.217,74.388 103.217,74.388 C103.217,74.388 103.213,74.399 103.213,74.399 C100.678,70.077 95.883,67.553 90.746,68.201 C83.785,69.076 78.856,75.415 79.731,82.361 C79.731,82.361 85.588,124.757 85.588,124.757 C85.588,124.757 85.667,124.746 85.667,124.746 C85.667,124.746 67.636,169.924 67.636,169.924 C65.961,174.171 67.936,178.711 71.957,180.292 C75.862,181.828 80.251,180.005 81.954,176.228 C81.954,176.228 98.205,136.382 98.205,136.382 C98.205,136.382 105.338,175.999 105.338,175.999 C106.3,180.029 110.267,182.64 114.391,181.866 C118.639,181.067 121.433,176.98 120.587,172.492 C120.587,172.492 110.722,121.324 110.722,121.324 C110.722,121.324 110.665,121.318 110.665,121.318 C110.665,121.318 107.292,96.851 107.292,96.851 C107.292,96.851 116.408,104.834 116.408,104.834 C116.408,104.834 116.408,114.78 116.408,114.78 C116.408,115.737 117.186,116.514 118.144,116.514 C118.144,116.514 168.247,116.514 168.247,116.514 C169.204,116.514 169.984,115.738 169.984,114.78 C169.984,114.78 169.984,76.96 169.984,76.96 C169.985,76.933 170,76.911 170,76.884 C169.998,76.474 169.858,76.098 169.623,75.8 ZM144.932,68.1 C144.932,68.1 160.915,68.1 160.915,68.1 C160.915,68.1 165.175,75.151 165.175,75.151 C165.175,75.151 144.932,75.151 144.932,75.151 C144.932,75.151 144.932,68.1 144.932,68.1 ZM125.475,68.1 C125.475,68.1 141.458,68.1 141.458,68.1 C141.458,68.1 141.458,75.151 141.458,75.151 C141.458,75.151 121.216,75.151 121.216,75.151 C121.216,75.151 125.475,68.1 125.475,68.1 ZM166.509,113.048 C166.509,113.048 119.879,113.048 119.879,113.048 C119.879,113.048 119.879,107.801 119.879,107.801 C119.879,107.801 143.906,107.801 143.906,107.801 C143.906,107.801 144.659,107.796 144.659,107.796 C148.682,107.721 151.704,104.587 151.632,100.794 C151.563,97.114 148.603,94.172 144.955,94.068 C144.955,94.068 124.712,94.068 124.712,94.068 C124.712,94.068 119.881,89.645 119.881,89.645 C119.881,89.645 119.881,78.614 119.881,78.614 C119.881,78.614 166.511,78.614 166.511,78.614 C166.511,78.614 166.511,113.048 166.511,113.048 C166.511,113.048 166.509,113.048 166.509,113.048 ZM99.772,66.183 C106.461,66.183 111.884,60.77 111.884,54.091 C111.884,47.415 106.463,42 99.772,42 C93.082,42 87.659,47.415 87.659,54.092 C87.66,60.77 93.0839999999999,66.183 99.772,66.183 Z "/></svg>