<?xml version="1.0" encoding="utf-8"?><!DOCTYPE svg PUBLIC "-//W3C//DTD SVG 1.1//EN" "http://www.w3.org/Graphics/SVG/1.1/DTD/svg11.dtd"><svg version="1.1" baseProfile="full" xmlns="http://www.w3.org/2000/svg" xmlns:xlink="http://www.w3.org/1999/xlink" xmlns:ev="http://www.w3.org/2001/xml-events"   height="221px"   width="221px" ><path fill="rgb( 255, 255, 255 )" d="M110.5,0 C171.528,0 221,49.473 221,110.5 C221,171.527 171.528,221 110.5,221 C49.473,221 0,171.527 0,110.5 C0,49.473 49.473,0 110.5,0 Z "/><path fill="rgb( 51, 51, 51 )" d="M88,145 C88,145 183,145 183,145 C183,145 183,158 183,158 C183,158 88,158 88,158 C88,158 88,145 88,145 Z "/><path fill="rgb( 85, 85, 85 )" d="M68.923,149.407 C69.146,149.369 69.419,149.324 69.742,149.273 C70.064,149.222 70.4589999999999,149.196 70.925,149.196 C72.336,149.196 73.453,149.57 74.277,150.317 C75.101,151.064 75.513,152.082 75.513,153.372 C75.513,154.866 75.045,156.033 74.109,156.873 C73.174,157.712 71.8440000000001,158.132 70.12,158.132 C68.556,158.132 67.327,157.88 66.433,157.376 C66.433,157.376 66.433,155.336 66.433,155.336 C66.95,155.629 67.544,155.856 68.2140000000001,156.016 C68.885,156.175 69.5069999999999,156.255 70.082,156.255 C71.097,156.255 71.87,156.028 72.4,155.575 C72.9299999999999,155.122 73.1950000000001,154.458 73.1950000000001,153.583 C73.1950000000001,151.91 72.128,151.073 69.996,151.073 C69.696,151.073 69.325,151.104 68.885,151.164 C68.444,151.225 68.058,151.294 67.726,151.37 C67.726,151.37 66.72,150.777 66.72,150.777 C66.72,150.777 67.2569999999999,143.938 67.2569999999999,143.938 C67.2569999999999,143.938 74.5359999999999,143.938 74.5359999999999,143.938 C74.5359999999999,143.938 74.5359999999999,145.94 74.5359999999999,145.94 C74.5359999999999,145.94 69.239,145.94 69.239,145.94 C69.239,145.94 68.923,149.407 68.923,149.407 ZM54.978,156.236 C54.978,156.236 58.5890000000001,152.606 58.5890000000001,152.606 C59.655,151.514 60.362,150.74 60.71,150.283 C61.058,149.827 61.312,149.397 61.472,148.995 C61.631,148.593 61.711,148.162 61.711,147.702 C61.711,147.07 61.521,146.572 61.141,146.208 C60.761,145.844 60.236,145.662 59.566,145.662 C59.029,145.662 58.51,145.761 58.009,145.959 C57.508,146.157 56.928,146.514 56.271,147.032 C56.271,147.032 55.054,145.547 55.054,145.547 C55.833,144.889 56.59,144.423 57.324,144.149 C58.059,143.874 58.841,143.737 59.671,143.737 C60.974,143.737 62.018,144.077 62.803,144.757 C63.588,145.437 63.981,146.352 63.981,147.501 C63.981,148.133 63.8680000000001,148.733 63.641,149.302 C63.414,149.87 63.066,150.456 62.597,151.059 C62.128,151.662 61.347,152.478 60.255,153.506 C60.255,153.506 57.822,155.862 57.822,155.862 C57.822,155.862 57.822,155.958 57.822,155.958 C57.822,155.958 64.4690000000001,155.958 64.4690000000001,155.958 C64.4690000000001,155.958 64.4690000000001,157.941 64.4690000000001,157.941 C64.4690000000001,157.941 54.978,157.941 54.978,157.941 C54.978,157.941 54.978,156.236 54.978,156.236 Z "/><path fill="rgb( 51, 51, 51 )" d="M88,104 C88,104 183,104 183,104 C183,104 183,117 183,117 C183,117 88,117 88,117 C88,117 88,104 88,104 Z "/><path fill="rgb( 85, 85, 85 )" d="M69.742,108.273 C69.419,108.324 69.146,108.369 68.923,108.407 C68.923,108.407 69.239,104.94 69.239,104.94 C69.239,104.94 74.535,104.94 74.535,104.94 C74.535,104.94 74.535,102.938 74.535,102.938 C74.535,102.938 67.256,102.938 67.256,102.938 C67.256,102.938 66.72,109.777 66.72,109.777 C66.72,109.777 67.726,110.37 67.726,110.37 C68.058,110.294 68.444,110.225 68.885,110.164 C69.325,110.104 69.6950000000001,110.073 69.996,110.073 C72.128,110.073 73.194,110.91 73.194,112.583 C73.194,113.458 72.929,114.122 72.4,114.575 C71.869,115.028 71.097,115.255 70.082,115.255 C69.5069999999999,115.255 68.885,115.175 68.2140000000001,115.016 C67.544,114.856 66.95,114.629 66.433,114.336 C66.433,114.336 66.433,116.376 66.433,116.376 C67.326,116.88 68.556,117.132 70.12,117.132 C71.8440000000001,117.132 73.174,116.712 74.109,115.873 C75.044,115.033 75.5119999999999,113.866 75.5119999999999,112.372 C75.5119999999999,111.082 75.1,110.064 74.277,109.317 C73.453,108.57 72.336,108.196 70.925,108.196 C70.458,108.196 70.064,108.222 69.742,108.273 Z "/><path fill="rgb( 51, 51, 51 )" d="M88,66 C88,66 183,66 183,66 C183,66 183,79 183,79 C183,79 88,79 88,79 C88,79 88,66 88,66 Z "/><path fill="rgb( 85, 85, 85 )" d="M74.492,77.36 C73.71,78.542 72.514,79.1319999999999 70.905,79.1319999999999 C69.347,79.1319999999999 68.1660000000001,78.523 67.362,77.303 C66.557,76.083 66.155,74.295 66.155,71.939 C66.155,69.468 66.546,67.647 67.328,66.475 C68.11,65.304 69.302,64.718 70.905,64.718 C72.47,64.718 73.654,65.331 74.4589999999999,66.557 C75.263,67.783 75.665,69.577 75.665,71.939 C75.665,74.372 75.274,76.179 74.492,77.36 ZM72.797,67.864 C72.398,67.024 71.7670000000001,66.605 70.905,66.605 C70.043,66.605 69.4160000000001,67.016 69.023,67.84 C68.631,68.664 68.434,70.03 68.434,71.939 C68.434,73.849 68.631,75.212 69.023,76.029 C69.4160000000001,76.846 70.043,77.255 70.905,77.255 C71.7670000000001,77.255 72.398,76.84 72.797,76.01 C73.196,75.1799999999999 73.395,73.823 73.395,71.939 C73.395,70.062 73.196,68.704 72.797,67.864 ZM59.7089999999999,79.1319999999999 C58.151,79.1319999999999 56.97,78.523 56.165,77.303 C55.361,76.083 54.958,74.295 54.958,71.939 C54.958,69.468 55.349,67.647 56.1319999999999,66.475 C56.914,65.304 58.106,64.718 59.7089999999999,64.718 C61.273,64.718 62.458,65.331 63.2619999999999,66.557 C64.067,67.783 64.4690000000001,69.577 64.4690000000001,71.939 C64.4690000000001,74.372 64.078,76.179 63.296,77.36 C62.514,78.542 61.318,79.1319999999999 59.7089999999999,79.1319999999999 ZM61.601,67.864 C61.201,67.024 60.571,66.605 59.7089999999999,66.605 C58.847,66.605 58.22,67.016 57.827,67.84 C57.434,68.664 57.2380000000001,70.03 57.2380000000001,71.939 C57.2380000000001,73.849 57.434,75.212 57.827,76.029 C58.22,76.846 58.847,77.255 59.7089999999999,77.255 C60.571,77.255 61.201,76.84 61.601,76.01 C61.999,75.1799999999999 62.199,73.823 62.199,71.939 C62.199,70.062 61.999,68.704 61.601,67.864 ZM48.139,69.899 C48.139,68.8200000000001 48.164,67.965 48.216,67.332 C48.069,67.486 47.888,67.655 47.675,67.84 C47.461,68.025 46.744,68.6130000000001 45.524,69.602 C45.524,69.602 44.394,68.175 44.394,68.175 C44.394,68.175 48.513,64.938 48.513,64.938 C48.513,64.938 50.39,64.938 50.39,64.938 C50.39,64.938 50.39,78.941 50.39,78.941 C50.39,78.941 48.139,78.941 48.139,78.941 C48.139,78.941 48.139,69.899 48.139,69.899 Z "/></svg>