<?xml version="1.0" encoding="utf-8"?><!DOCTYPE svg PUBLIC "-//W3C//DTD SVG 1.1//EN" "http://www.w3.org/Graphics/SVG/1.1/DTD/svg11.dtd"><svg version="1.1" baseProfile="full" xmlns="http://www.w3.org/2000/svg" xmlns:xlink="http://www.w3.org/1999/xlink" xmlns:ev="http://www.w3.org/2001/xml-events"   height="221px"   width="221px" ><path fill="rgb( 255, 255, 255 )" d="M110.5,0 C171.528,0 221,49.473 221,110.5 C221,171.527 171.528,221 110.5,221 C49.473,221 0,171.527 0,110.5 C0,49.473 49.473,0 110.5,0 Z "/><path fill="rgb( 51, 51, 51 )" d="M96.255,59.394 C96.255,59.394 80.094,53 80.094,53 C80.094,53 79.753,53 79.753,53 C76.619,56.487 72.069,58.684 67,58.684 C61.931,58.684 57.381,56.487 54.243,53 C54.243,53 53.902,53 53.902,53 C53.902,53 37.741,59.394 37.741,59.394 C37.741,59.394 22,74.733 22,74.733 C22,74.733 38.815,88.129 38.815,88.129 C38.815,88.129 43.805,83.552 43.805,83.552 C43.805,83.552 43.805,134 43.805,134 C43.805,134 67,134 67,134 C67,134 90.194,134 90.194,134 C90.194,134 90.194,83.552 90.194,83.552 C90.194,83.552 95.181,88.129 95.181,88.129 C95.181,88.129 112,74.733 112,74.733 C112,74.733 96.255,59.394 96.255,59.394 Z "/><path fill="rgb( 51, 51, 51 )" d="M147.932,158.755 C149.545,161.055 153.676,166.955 151.258,174.555 C150.955,175.455 150.855,176.355 150.855,177.155 C150.855,177.155 150.855,182.355 150.855,182.355 C150.855,182.955 150.351,183.455 149.746,183.555 C146.924,184.055 138.257,185.155 128.885,184.755 C128.381,184.755 127.978,184.355 127.978,183.855 C127.978,183.855 127.978,181.155 127.978,181.155 C127.978,181.155 124.652,180.655 114.474,183.555 C111.551,184.355 108.427,184.855 105.404,184.955 C97.039,185.155 79.806,184.855 66.504,180.555 C66.201,180.455 66,180.155 66,179.855 C66.101,179.255 66.705,170.455 77.186,172.055 C77.186,172.055 89.683,173.755 98.853,166.455 C99.559,165.955 100.163,165.355 100.869,164.855 C100.869,164.855 109.737,158.555 109.737,158.555 C110.644,157.855 111.854,157.855 112.861,158.355 C117.699,160.855 132.614,167.355 145.715,158.355 C146.42,157.855 147.428,158.055 147.932,158.755 Z "/><path fill="rgb( 51, 51, 51 )" d="M193.54,119.435 C191.209,120.417 188.951,121.009 188.951,121.009 C188.951,121.009 188.677,114.391 188.677,114.391 C188.677,114.391 194.755,114.305 193.642,98.742 C192.636,84.667 192.526,82.328 192.497,80.654 C192.148,60.87 182.922,69.173 182.922,69.173 C182.922,69.173 179.315,65.233 179.315,65.233 C192.93,54.307 196.924,68.567 197.359,73.001 C197.538,74.838 198.33,84.285 198.33,84.285 C198.33,84.285 199.997,100.302 200,103.681 C200,112.219 196.839,118.043 193.54,119.435 ZM171.838,73.59 C171.831,73.592 171.825,73.596 171.822,73.605 C171.822,73.606 171.822,73.606 171.822,73.607 C170.603,74.832 169.766,76.082 169.491,76.706 C169.357,77.008 169.175,77.427 168.973,77.933 C167.962,80.25 166.775,83.962 165.576,90.045 C164.36,96.21 157.964,95.93 155.417,95.697 C154.123,95.579 149.624,94.375 144.967,93.016 C145.082,92.623 145.232,92.303 145.346,92.046 C147.196,87.884 149.098,84.796 149.098,84.796 C149.098,84.796 148.961,83.454 146.024,82.837 C143.087,82.219 142.503,83.753 142.503,83.753 C142.503,83.753 139.97,86.912 138.476,91.054 C136.478,90.426 134.791,89.869 133.766,89.49 C129.662,87.97 127.662,85.999 127.688,84.429 C129.665,78.244 132.814,71.808 136.4,68.22 C143.266,61.35 153.648,61.092 153.648,61.092 C153.648,61.092 153.5,61.113 153.28,61.145 C153.397,61.128 153.518,61.111 153.648,61.092 C158.177,60.45 173.335,66.449 173.752,66.61 C175.588,67.319 177.312,68.754 178.825,70.439 C178.641,70.411 178.475,70.394 178.34,70.394 C175.769,70.384 173.466,71.962 171.838,73.59 ZM169.673,61.661 C169.673,61.661 169.919,52.22 168.18,51.871 C166.612,51.557 165.344,51.369 164.608,51.316 C163.075,51.205 163.173,53.145 163.096,54.956 C162.973,57.855 162.922,59.362 162.922,59.362 C162.922,59.362 158.059,58.087 158.059,58.087 C158.059,58.087 158.803,47.871 161.582,47.263 C165.741,46.352 169.926,48.05 172.777,48.864 C174.479,49.35 176.185,57.283 175.977,64.115 C175.977,64.115 169.673,61.661 169.673,61.661 ZM153.66,57.408 C153.66,57.408 150.651,57.871 150.651,57.871 C150.651,57.871 149.492,58.451 149.492,57.871 C149.492,57.292 149.84,56.596 150.651,55.321 C151.46,54.046 154.24,52.771 154.24,52.771 C154.24,52.771 153.66,54.857 153.66,54.857 C153.66,54.857 153.66,57.408 153.66,57.408 ZM137.454,95.642 C136.853,99.086 137.535,103 137.535,103 C137.535,103 137.466,104.929 140.135,105.522 C143.267,106.217 144.062,104.317 144.062,104.317 C144.062,104.317 143.539,100.131 144.154,97.693 C148.195,98.889 151.987,99.93 154.028,100.305 C158.915,101.201 166.166,100.187 167.031,95.789 C166.485,107.767 165.372,127.34 164.963,134.859 C164.963,134.859 164.775,134.87 164.775,134.87 C162.207,135.055 155.739,135.466 149.946,133.347 C139.96,129.695 129.616,124.71 129.077,122.332 C128.676,120.564 123.016,112.189 125.743,92.742 C125.79,92.412 125.839,91.029 125.894,90.687 C126.646,91.551 127.689,92.323 129.136,92.878 C130.339,93.34 133.607,94.429 137.454,95.642 ZM181.419,76.522 C182.515,79.3 183.796,84.644 184.196,89.623 C184.196,89.623 184.196,89.623 184.196,89.624 C184.645,95.216 184.654,100.874 184.63,103.453 C184.622,104.368 184.607,104.897 184.607,104.896 C184.607,104.896 184.661,104.693 184.661,104.693 C184.859,112.365 185.078,121.872 185.078,121.872 C185.078,121.872 181.988,122.991 181.758,124.188 C181.411,125.984 180.657,128.094 179.268,130.274 C178.612,131.305 173.26,132.703 169.524,133.678 C169.668,129.308 171.149,85.228 172.714,81.404 C174.225,77.712 179.576,71.846 181.419,76.522 Z "/></svg>