<?xml version="1.0" encoding="utf-8"?><!DOCTYPE svg PUBLIC "-//W3C//DTD SVG 1.1//EN" "http://www.w3.org/Graphics/SVG/1.1/DTD/svg11.dtd"><svg version="1.1" baseProfile="full" xmlns="http://www.w3.org/2000/svg" xmlns:xlink="http://www.w3.org/1999/xlink" xmlns:ev="http://www.w3.org/2001/xml-events"   height="221px"   width="221px" ><path fill="rgb( 255, 255, 255 )" d="M110.5,0 C171.528,0 221,49.473 221,110.5 C221,171.527 171.528,221 110.5,221 C49.473,221 0,171.527 0,110.5 C0,49.473 49.473,0 110.5,0 Z "/><path fill="rgb( 51, 51, 51 )" d="M179.489,88.084 C178.029,89.545 176.406,90.519 174.62,91.33 C177.379,96.849 178.84,103.179 178.84,109.671 C178.84,125.252 170.4,138.886 157.74,146.19 C161.311,140.022 163.421,132.719 163.421,125.09 C163.421,101.718 144.431,82.89 121.221,82.89 C113.43,82.89 106.289,85 100.121,88.571 C107.425,75.911 121.059,67.471 136.64,67.471 C142.808,67.471 148.813,68.932 154.169,71.366 C154.981,69.419 156.117,67.633 157.578,66.172 C163.583,60.167 173.484,60.167 179.489,66.172 C185.495,72.178 185.495,82.079 179.489,88.084 ZM83.89,99.77 C83.89,107.561 86,114.702 89.571,120.87 C76.9109999999999,113.566 68.471,99.932 68.471,84.351 C68.471,78.183 69.932,72.178 72.366,66.822 C70.419,66.01 68.633,64.874 67.172,63.413 C61.167,57.408 61.167,47.507 67.172,41.502 C73.178,35.496 83.079,35.496 89.0839999999999,41.502 C90.545,42.962 91.519,44.586 92.33,46.371 C97.849,43.612 104.179,42.151 110.671,42.151 C126.252,42.151 139.886,50.591 147.19,63.251 C141.022,59.68 133.719,57.57 126.09,57.57 C102.718,57.57 83.89,76.56 83.89,99.77 ZM58.5700000000001,94.901 C58.5700000000001,118.273 77.5599999999999,137.101 100.77,137.101 C108.561,137.101 115.702,134.991 121.87,131.42 C114.566,144.08 100.932,152.52 85.351,152.52 C79.021,152.52 73.178,151.059 67.822,148.625 C67.01,150.572 65.874,152.358 64.413,153.819 C58.408,159.824 48.5069999999999,159.824 42.502,153.819 C36.496,147.813 36.496,137.912 42.502,131.907 C43.962,130.446 45.585,129.472 47.371,128.661 C44.612,123.142 43.151,116.812 43.151,110.32 C43.151,94.739 51.591,81.105 64.251,73.801 C60.6799999999999,79.969 58.5700000000001,87.272 58.5700000000001,94.901 ZM138.101,120.221 C138.101,112.43 135.991,105.289 132.42,99.121 C145.08,106.425 153.52,120.059 153.52,135.64 C153.52,141.808 152.059,147.813 149.625,153.169 C151.572,153.981 153.358,155.117 154.819,156.578 C160.824,162.583 160.824,172.484 154.819,178.489 C148.813,184.495 138.912,184.495 132.907,178.489 C131.446,177.029 130.472,175.406 129.661,173.62 C124.142,176.379 117.812,177.84 111.32,177.84 C95.739,177.84 82.105,169.4 74.801,156.74 C80.9690000000001,160.311 88.272,162.421 95.901,162.421 C119.273,162.421 138.101,143.431 138.101,120.221 Z "/></svg>