<?xml version="1.0" encoding="utf-8"?><!DOCTYPE svg PUBLIC "-//W3C//DTD SVG 1.1//EN" "http://www.w3.org/Graphics/SVG/1.1/DTD/svg11.dtd"><svg version="1.1" baseProfile="full" xmlns="http://www.w3.org/2000/svg" xmlns:xlink="http://www.w3.org/1999/xlink" xmlns:ev="http://www.w3.org/2001/xml-events"   height="221px"   width="221px" ><path fill="rgb( 255, 255, 255 )" d="M110.5,0 C171.528,0 221,49.473 221,110.5 C221,171.527 171.528,221 110.5,221 C49.473,221 0,171.527 0,110.5 C0,49.473 49.473,0 110.5,0 Z "/><path fill="rgb( 51, 51, 51 )" d="M144.924,158 C144.924,158 144.924,131.619 144.924,131.619 C138.811,137.069 129.925,142.205 115.568,143.812 C115.292,143.829 115.035,143.849 114.777,143.849 C111.254,143.849 108.223,141.189 107.839,137.586 C107.417,133.726 110.171,130.251 114.007,129.809 C130.953,127.925 137.011,120.333 142.354,113.681 C144.74,110.689 146.998,107.88 149.992,105.885 C150.064,105.83 150.175,105.83 150.267,105.756 C152.801,103.632 156.049,102.283 159.593,102.283 C159.593,102.283 168.332,102.283 168.332,102.283 C176.39,102.283 183,108.916 183,117.044 C183,117.044 183,158 183,158 C183,158 144.924,158 144.924,158 ZM163.944,98.4760000000001 C155.058,98.4760000000001 147.823,91.2159999999999 147.823,82.2380000000001 C147.823,73.278 155.058,66 163.942,66 C172.883,66 180.118,73.278 180.119,82.2380000000001 C180.119,91.2159999999999 172.885,98.4760000000001 163.944,98.4760000000001 ZM103.578,138.048 C103.798,139.97 104.587,141.633 105.597,143.11 C93.5170000000001,141.078 85.658,136.423 80.095,131.527 C80.095,131.527 80.095,158 80.095,158 C80.095,158 42,158 42,158 C42,158 42,117.044 42,117.044 C42,108.916 48.61,102.283 56.689,102.281 C56.689,102.281 65.41,102.281 65.41,102.281 C68.971,102.281 72.202,103.629 74.754,105.755 C74.828,105.828 74.938,105.828 75.029,105.884 C78.023,107.88 80.28,110.706 82.649,113.68 C87.513,119.741 93.1130000000001,126.446 106.773,129.069 C104.532,131.396 103.211,134.593 103.578,138.048 ZM61.058,98.4760000000001 C52.117,98.4760000000001 44.902,91.2159999999999 44.902,82.2380000000001 C44.9,73.278 52.115,66 61.058,66 C69.943,66 77.177,73.278 77.177,82.2380000000001 C77.177,91.2159999999999 69.943,98.4760000000001 61.058,98.4760000000001 Z "/></svg>